# xmcd CD database file
#
# Track frame offsets:
#	150
#	21787
#	38050
#	69707
#	88932
#	107042
#	127632
#	149837
#	165585
#	188442
#	207585
#	232747
#
# Disc length: 3409 seconds
#
# Revision: 0
# Processed by: cddbd v1.5.2PL0 Copyright (c) Steve Scherf et al.
# Submitted via: CDex 1.51
#
DISCID=9f0d4f0c
DTITLE=King Bees - Boogie Buzz
DYEAR=1994
DGENRE=Blues
TTITLE0=Work With It, Baby
TTITLE1=Cool It Daddy
TTITLE2=Pomade And Cologne
TTITLE3=They Call Me Rockin'
TTITLE4=Boogie Buzz
TTITLE5=Has He Got The Jack
TTITLE6=That's All Right
TTITLE7=He's Tough
TTITLE8=Mean Woman
TTITLE9=Won't Run Around No More
TTITLE10=Lose That Man
TTITLE11=Please Set A Date
EXTD=YEAR: 1994
EXTT0=
EXTT1=
EXTT2=
EXTT3=
EXTT4=
EXTT5=
EXTT6=
EXTT7=
EXTT8=
EXTT9=
EXTT10=
EXTT11=
PLAYORDER=
